<?xml version="1.0" encoding="UTF-8"?><svg id="Layer_1" xmlns="http://www.w3.org/2000/svg" xmlns:xlink="http://www.w3.org/1999/xlink" viewBox="0 0 732.52 782.45"><defs><style>.cls-1{fill:#fdbc2b;}.cls-1,.cls-2,.cls-3,.cls-4,.cls-5,.cls-6,.cls-7,.cls-8,.cls-9,.cls-10,.cls-11,.cls-12,.cls-13,.cls-14,.cls-15,.cls-16{stroke-width:3.03px;}.cls-1,.cls-2,.cls-4,.cls-5,.cls-6,.cls-7,.cls-8,.cls-9,.cls-13,.cls-14,.cls-15,.cls-16{stroke:#000;}.cls-1,.cls-4,.cls-5,.cls-6,.cls-7,.cls-8,.cls-9,.cls-10,.cls-13,.cls-14,.cls-15,.cls-16{stroke-miterlimit:10;}.cls-17,.cls-2,.cls-16{fill:none;}.cls-2,.cls-3,.cls-11,.cls-12{stroke-linecap:round;stroke-linejoin:round;}.cls-3{fill:#ffb6c0;}.cls-3,.cls-10,.cls-11,.cls-12{stroke:#280300;}.cls-4{fill:#493b82;}.cls-18{fill:#04192f;}.cls-5,.cls-10,.cls-11{fill:#fff;}.cls-6{fill:#4659f2;}.cls-7{fill:url(#linear-gradient-4);}.cls-8{fill:url(#linear-gradient-3);}.cls-9{fill:url(#linear-gradient-2);}.cls-19,.cls-12{fill:#ad2930;}.cls-13{fill:#221d44;}.cls-14{fill:#0f1338;}.cls-15{fill:url(#linear-gradient);}</style><linearGradient id="linear-gradient" x1="113.54" y1="407.12" x2="722.81" y2="407.12" gradientUnits="userSpaceOnUse"><stop offset="0" stop-color="#000"/><stop offset=".04" stop-color="#142322"/><stop offset=".09" stop-color="#233c3b"/><stop offset=".13" stop-color="#2b4b4a"/><stop offset=".16" stop-color="#2f5150"/><stop offset=".32" stop-color="#366d5f"/><stop offset=".35" stop-color="#3c8171"/><stop offset=".41" stop-color="#449c89"/><stop offset=".44" stop-color="#48a693"/><stop offset=".61" stop-color="#48a693"/><stop offset=".64" stop-color="#419180"/><stop offset=".7" stop-color="#397668"/><stop offset=".73" stop-color="#366d5f"/><stop offset=".79" stop-color="#356a5d"/><stop offset=".83" stop-color="#326058"/><stop offset=".87" stop-color="#2f5150"/><stop offset=".87" stop-color="#2f5150"/><stop offset="1" stop-color="#000"/></linearGradient><linearGradient id="linear-gradient-2" x1="226.43" y1="72.56" x2="609.92" y2="72.56" xlink:href="#linear-gradient"/><linearGradient id="linear-gradient-3" x1="167.38" y1="384.8" x2="211.34" y2="384.8" xlink:href="#linear-gradient"/><linearGradient id="linear-gradient-4" x1="620.32" y1="386.98" x2="664.51" y2="386.98" xlink:href="#linear-gradient"/></defs><path class="cls-4" d="M418.17,739.6h-240.3v3.9l20.4,30.6s2.84,6.84,22.21,6.84h395.37c19.38,0,22.21-6.84,22.21-6.84l20.4-30.6v-3.9h-240.3Z"/><path class="cls-17" d="M112.54,505.73c18.85-22.24,33.97-53.07,25.65-91.16-11.94,22.62-25.71,56.3-25.65,91.16Z"/><path class="cls-14" d="M62.64,546.36c-41.36,24.42-38.03-7.2-37.82-8.96-.14,1.14-1.8,13.94.01-10.79,1.89-25.84,23.47-.57,23.47-.57-.56-18.14-7.74-25.4-7.74-25.4-16.07-22.81-35.76,20.73-35.76,20.73-13.99,40.95,21.25,54.94,21.25,54.94,46.13,22.81,95.8-25.03,95.8-25.03-6.63-14.86-9.29-30.31-9.32-45.55-22.34,26.34-49.9,40.63-49.9,40.63Z"/><path class="cls-6" d="M24.82,537.4c0-.05.01-.08.01-.08,0,0,0,.03-.01.08Z"/><path class="cls-13" d="M178.09,152.87c-28.28-50.84-64.55-39.42-64.55-39.42-132.89,60.88-31.28,204.57-31.28,204.57,33.8,24.58,47.49,71.8,47.49,71.8,3.95,8.56,6.7,16.81,8.44,24.75,9.1-17.25,17.13-28.07,17.13-28.07l-28.71-60.53c-23.32-44.06-33.17-98.99-33.17-98.99-18.66-73.08,26.43-81.89,26.43-81.89,26.43-9.33,36.28,13.99,36.28,13.99l15.03,24.36c27.47,52.35,64.93,56.37,64.93,56.37,5.48-8.73,8.23-23.54,9.5-39.13-44.76-10.95-67.52-47.81-67.52-47.81Z"/><path class="cls-4" d="M82.26,318.02S-19.35,174.33,113.54,113.45c0,0,36.27-11.42,64.55,39.42,0,0,22.76,36.85,67.52,47.81,2.36-29.06-.46-60.81-.46-60.81l-34.72.55c-23.46.52-25.78-12.44-25.78-12.44-23.32-61.68-60.62-62.2-60.62-62.2-53.88-5.7-92.8,71.53-92.8,71.53-38.35,81.37-10.88,173.11-10.88,173.11,15.03,44.06,55.98,55.46,55.98,55.46,45.61,25.4,37.16,83.96,37.16,83.96-7.94,32.13-65.18,76.19-65.18,76.19,0,0-21.58-25.27-23.47.57-1.81,24.74-.15,11.93-.01,10.79,0-.05.01-.08.01-.08,0,0,0,.03-.01.08-.21,1.76-3.54,33.38,37.82,8.96,0,0,27.57-14.28,49.9-40.63-.06-34.85,13.71-68.53,25.65-91.16-1.74-7.94-4.49-16.2-8.44-24.75,0,0-13.69-47.22-47.49-71.8Z"/><rect class="cls-1" x="143.27" y="141.34" width="62.6" height="11.6" transform="translate(-50.75 183.94) rotate(-49.4)"/><rect class="cls-1" x="97.39" y="400.45" width="62.6" height="11.6"/><rect class="cls-1" x="97.39" y="412.05" width="62.6" height="11.6"/><path class="cls-14" d="M658.47,675.41c0-5.05-4.02-9.18-8.94-9.18H186.82c-4.92,0-8.94,4.13-8.94,9.18v64.18h480.6v-64.18Z"/><path class="cls-15" d="M700.71,421.1l-90.79-159.2c-26.04-46.78-22-112.55-13.94-159.76H240.37c8.06,47.22,12.1,112.98-13.94,159.76l-90.79,159.2s-42.94,65.54-9.12,141.86l38.63,84.8s22.38,57.6,73.32,62.27c11.16,1.02,24.49,1.6,38.49,1.87v.2h278.33v-.13c15.5-.24,30.35-.82,42.59-1.94,50.93-4.67,73.32-62.27,73.32-62.27l38.63-84.8c33.82-76.32-9.12-141.86-9.12-141.86Z"/><path class="cls-9" d="M609.92,42.98H226.43s8.05,24.61,13.94,59.14h355.61c5.9-34.53,13.94-59.14,13.94-59.14Z"/><ellipse class="cls-8" cx="189.36" cy="384.8" rx="21.98" ry="15.68"/><line class="cls-2" x1="173.9" y1="390.62" x2="182.27" y2="376.51"/><line class="cls-2" x1="184.46" y1="390.62" x2="192.83" y2="376.51"/><line class="cls-2" x1="195.01" y1="390.62" x2="203.39" y2="376.51"/><ellipse class="cls-7" cx="642.41" cy="386.98" rx="22.1" ry="15.76"/><line class="cls-2" x1="626.87" y1="392.83" x2="635.29" y2="378.64"/><line class="cls-2" x1="637.48" y1="392.83" x2="645.9" y2="378.64"/><line class="cls-2" x1="648.09" y1="392.83" x2="656.51" y2="378.64"/><path class="cls-11" d="M275.12,249.55c-50.81,0-92,41.19-92,92,0,6.16.62,12.17,1.77,17.99,9.47.57,20.62,1.44,32.81,2.76-1.55-5.72-2.39-11.75-2.39-17.99,0-36.73,28.68-66.5,64.07-66.5,7.08,0,13.88,1.21,20.24,3.41.43-.32.88-.63,1.35-.9,9.25-5.34,22.36.04,29.28,12.02,3.35,5.8,4.62,12.08,4,17.63,5.84,10.03,9.2,21.78,9.2,34.35,0,16.16-5.56,30.98-14.8,42.5,7.17,2.77,14.08,5.82,20.64,9.16,11.21-15.24,17.84-34.06,17.84-54.43,0-50.81-41.19-92-92-92Z"/><path d="M343.44,344.31c0-12.57-3.36-24.32-9.2-34.35-.66,5.91-3.46,10.98-8.23,13.74-9.25,5.34-22.36-.04-29.28-12.02-6.56-11.37-5.18-24.58,2.88-30.46-6.36-2.2-13.17-3.41-20.24-3.41-35.38,0-64.07,29.77-64.07,66.5,0,6.24.85,12.27,2.39,17.99,33.75,3.65,75.39,10.75,110.95,24.51,9.24-11.53,14.8-26.34,14.8-42.5Z"/><path class="cls-19" d="M334.24,309.96c.62-5.55-.65-11.83-4-17.63-6.92-11.98-20.03-17.36-29.28-12.02-.47.27-.91.58-1.35.9,14.57,5.03,26.82,15.33,34.62,28.74Z"/><path class="cls-19" d="M296.73,311.68c6.92,11.98,20.03,17.36,29.28,12.02,4.77-2.76,7.57-7.83,8.23-13.74-7.81-13.41-20.06-23.71-34.62-28.74-8.06,5.89-9.44,19.1-2.88,30.46Z"/><path class="cls-16" d="M165.74,357.56s136.36,2.69,211.73,54.49"/><path class="cls-11" d="M568.06,249.71c50.81,0,92,41.19,92,92,0,6.16-.62,12.17-1.77,17.99-9.47.57-20.62,1.44-32.81,2.76,1.55-5.72,2.39-11.75,2.39-17.99,0-36.73-28.68-66.5-64.07-66.5-7.08,0-13.88,1.21-20.24,3.41-.43-.32-.88-.63-1.35-.9-9.25-5.34-22.36.04-29.28,12.02-3.35,5.8-4.62,12.08-4,17.63-5.84,10.03-9.2,21.78-9.2,34.35,0,16.16,5.56,30.98,14.8,42.5-7.17,2.77-14.08,5.82-20.64,9.16-11.21-15.24-17.84-34.06-17.84-54.43,0-50.81,41.19-92,92-92Z"/><path d="M499.74,344.48c0-12.57,3.36-24.32,9.2-34.35.66,5.91,3.46,10.98,8.23,13.74,9.25,5.34,22.36-.04,29.28-12.02,6.56-11.37,5.18-24.58-2.88-30.46,6.36-2.2,13.17-3.41,20.24-3.41,35.38,0,64.07,29.77,64.07,66.5,0,6.24-.85,12.27-2.39,17.99-33.75,3.65-75.39,10.75-110.95,24.51-9.24-11.53-14.8-26.34-14.8-42.5Z"/><path class="cls-19" d="M508.94,310.12c-.62-5.55.65-11.83,4-17.63,6.92-11.98,20.03-17.36,29.28-12.02.47.27.91.58,1.35.9-14.57,5.03-26.82,15.33-34.62,28.74Z"/><path class="cls-19" d="M546.44,311.84c-6.92,11.98-20.03,17.36-29.28,12.02-4.77-2.76-7.57-7.83-8.23-13.74,7.81-13.41,20.06-23.71,34.62-28.74,8.06,5.89,9.44,19.1,2.88,30.46Z"/><path class="cls-16" d="M677.43,357.72s-136.36,2.69-211.73,54.49"/><path d="M251.99,192.11c45.27,7.35,103.68,81.25,120.57,80.66,12.67-.44,24.82-25.35,24.82-25.35,0,0-2.14,54.23-20.82,60.04-18.68,5.81-116.8-56.39-144.1-60.71-20.04-3.17-57.89,5.63-57.89,5.63,0,0,20.21-69.56,77.42-60.27Z"/><path d="M616.15,203.48c-45.85-.85-116.53,61.42-133.04,57.82-12.38-2.7-19.89-29.38-19.89-29.38,0,0-7.59,53.74,9.75,62.8,17.34,9.06,125-34.61,152.63-33.99,20.29.46,55.95,15.88,55.95,15.88,0,0-7.46-72.05-65.41-73.13Z"/><path class="cls-1" d="M249.32,154.64s-9.91-5.11-12.35,2.07l-3.19,8.08,98.82,38.94s-7.64-7.53-14.75-11.23l-68.54-37.85Z"/><path class="cls-14" d="M237.26,185.23s-10.73-3.02-7.62-9.93l3.18-8.09,98.82,38.94s-10.72.29-18.45-1.84l-75.93-19.07Z"/><path class="cls-1" d="M592.07,154.64s9.91-5.11,12.35,2.07l3.19,8.08-98.82,38.94s7.64-7.53,14.75-11.23l68.54-37.85Z"/><path class="cls-14" d="M604.12,185.23s10.73-3.02,7.62-9.93l-3.18-8.09-98.82,38.94s10.72.29,18.45-1.84l75.93-19.07Z"/><rect class="cls-17" x="355.3" y="52.57" width="39.14" height="40.08"/><rect class="cls-17" x="307.45" y="52.57" width="39.14" height="40.08"/><polygon class="cls-17" points="255.34 52.57 264.16 92.65 298.74 92.65 298.74 52.57 255.34 52.57"/><polygon class="cls-1" points="590.34 52.74 581.42 52.74 574.52 84.11 538.02 84.11 538.02 52.74 530.49 52.74 529.31 52.74 490.17 52.74 481.47 52.74 481.47 61.45 481.47 84.11 442.33 84.11 442.33 52.74 441.02 52.74 441.02 52.57 403.15 52.57 395.3 52.57 394.44 52.57 394.44 83.94 355.3 83.94 355.3 61.28 355.3 52.57 346.59 52.57 307.45 52.57 306.28 52.57 298.74 52.57 298.74 83.94 262.25 83.94 255.34 52.57 246.42 52.57 229.16 52.57 231.53 61.28 248.34 61.28 255.24 92.65 258.43 92.65 264.16 92.65 298.74 92.65 307.45 92.65 307.45 83.94 307.45 61.28 346.59 61.28 346.59 92.65 349.1 92.65 355.3 92.65 394.44 92.65 398.12 92.65 403.15 92.65 403.15 61.36 433.62 61.36 433.62 92.82 438.65 92.82 442.33 92.82 481.47 92.82 487.67 92.82 490.17 92.82 490.17 61.45 529.31 61.45 529.31 84.11 529.31 92.82 538.02 92.82 572.6 92.82 578.34 92.82 581.52 92.82 588.42 61.45 605.24 61.45 607.61 52.74 590.34 52.74"/><path class="cls-4" d="M149.96,395.98s-6.51-5.22-11.24,0l-3.78,8.82,24.1,28.06-18.9,50.57s-7.09,27.88,0,32.14l42.13,10.87s4.32,2.36,7.09-11.34l5.65-78.93,16.33-3.31v-6.62l-22.7,5.2-10.56,71.84s-6.63,2.36-10.71,1.89l-16.84-3.78s-3.31-8.98,1.42-24.58l15.42-48.68-17.42-32.16Z"/><path class="cls-14" d="M134.95,404.8l24.1,28.06s-36.39,78.2-18.9,82.71c4.12,1.06,42.13,10.87,42.13,10.87,0,0,6.21.96,7.09-11.34l5.65-78.93,16.33-3.31,3.96,9.45s-13.72.95-14.19,8.03l-1.91,57.66v20.87s2.18,20.72-21.11,14.58l-43.14-11.34s-20.88-3.78-10.91-39.23l26.51-57.66-18.9-21.27,3.31-9.16Z"/><path class="cls-4" d="M686.31,395.98s6.51-5.22,11.24,0l3.78,8.82-24.1,28.06,18.9,50.57s7.09,27.88,0,32.14l-42.13,10.87s-4.32,2.36-7.09-11.34l-5.65-78.93-16.33-3.31v-6.62s22.7,5.2,22.7,5.2l10.56,71.84s6.63,2.36,10.71,1.89l16.84-3.78s3.31-8.98-1.42-24.58l-15.42-48.68,17.42-32.16Z"/><path class="cls-14" d="M701.33,404.8l-24.1,28.06s36.39,78.2,18.9,82.71c-4.12,1.06-42.13,10.87-42.13,10.87,0,0-6.21.96-7.09-11.34l-5.65-78.93-16.33-3.31-3.96,9.45s13.72.95,14.19,8.03l1.91,57.66v20.87s-2.18,20.72,21.11,14.58l43.14-11.34s20.88-3.78,10.91-39.23l-26.51-57.66,18.9-21.27-3.31-9.16Z"/><path class="cls-12" d="M626.94,416.09s-3.22,111.23-9.67,141.86c-2.18,10.3-13.8,28.6-31.95,48.27-9.62,10.43-21.07,21.23-33.92,31.43-35.06,27.89-80.56,51.33-127.55,50.22-71.32-1.69-128.68-44.4-159.68-82.22-11.03-13.44-18.72-26.28-22.52-36.42-.79-2.1-1.55-4.29-2.29-6.59-13.09-40.21-20.8-110.57-29.95-157.84,0,0,21.02,18.22,54.83,38.21,38.69,22.89,94.13,48.1,153.94,50.94,61.1,2.92,117.65-20.51,156.44-42.43,32.34-18.24,52.33-35.43,52.33-35.43Z"/><path class="cls-5" d="M271.04,452.64c2.67,14.03,4.84,23.25,7.4,29.22,1.64,3.82,16.34,16.11,42.9,27.21,22.71,9.49,59.99,20.63,108.84,19.77,81-1.42,125.02-34.9,132.58-41.2l5.06-26.75c-37.62,19.96-91.63,40.79-149.87,38.01-56.98-2.7-109.93-25.55-146.9-46.26Z"/><path class="cls-3" d="M551.4,637.66c-35.06,27.89-80.56,51.33-127.55,50.22-71.32-1.69-128.68-44.4-159.68-82.22-11.03-13.44-18.72-26.28-22.52-36.42-.79-2.1-1.55-4.29-2.29-6.59,92.47-13.96,243.86,20.09,312.04,75.01Z"/><path class="cls-10" d="M585.32,606.23c-35.89,38.88-97.26,83.17-161.47,81.65-71.32-1.69-128.68-44.4-159.68-82.22,5.04-9.87,13.51-22.92,22.62-21.91,14.51,1.61,67.71,43.2,132.19,43.2s125.75-59.33,143.48-52.88c10.64,3.87,18.38,19.91,22.86,32.15Z"/><line class="cls-6" x1="239.41" y1="124.77" x2="597.52" y2="124.77"/><path class="cls-18" d="M245.56,147.34c.03.38.01.19,0,0h0Z"/><path class="cls-18" d="M596.32,102.13s0-.04,0-.05c0,.02,0,.05,0,.05Z"/><path class="cls-18" d="M245.55,147.21s0,.08,0,.12c0-.04,0-.08,0-.12Z"/><path class="cls-18" d="M245.54,147.14s0,.05,0,.08c0-.04,0-.08,0-.08Z"/><path class="cls-18" d="M240.7,102.13h0c-.02-.13-.05-.27,0,0Z"/><path class="cls-4" d="M599.08,108.54c.52-4.14-1.64-5.9-2.77-6.41H240.71c.02.13.04.25,0,0,0,0-4.13.88-3.44,6.41l1.42,16.23h358.84l1.56-16.23Z"/><path class="cls-13" d="M238.68,124.77l1.33,15.19s.37,6.96,5.53,7.18h345.41s0,0,0-.01c4.89.03,5.11-7.08,5.11-7.08l1.47-15.28H238.68Z"/><path class="cls-18" d="M596.32,102.08s0-.01,0,0h0Z"/><path class="cls-18" d="M240.71,102.13h0c.05.25.03.13,0,0Z"/><path class="cls-4" d="M589.34,1.52H247.01c-23.68,0-32.7,10.37-35.8,20.73h413.93c-3.1-10.37-12.13-20.73-35.8-20.73Z"/><path class="cls-13" d="M211.21,22.25c-3.1,10.37-.29,20.73-.29,20.73h414.5s2.82-10.37-.29-20.73H211.21Z"/><path class="cls-4" d="M127.86,573.59h0s25.29,43.13,56.6,53.52c0,0,49.4,12.29,62.09,32.14,0,0,24.98,48.21,110.05,64.28,0,0,32.14-.58,16.07-20.61,0,0-14.18-8.32-21.74,0l-7.49,9.19s-7.63-23.88,9.39-24.19c0,0,25.71-.99,34.97,15,1.14,1.97,4.13,10.2,4.13,10.2,0,0-6.75,30.01-48.49,20.48,0,0-70.23-12.91-109.66-58.28,0,0-21.35-15-40.95-20.73,0,0-45.21-18.97-68.8-47.32l3.82-33.67Z"/><path class="cls-14" d="M124.03,607.26l25.56,41.59s52.95,26.47,65.7,31.19c0,0,51.05,47.56,77.27,53.55,0,0,94.54,40.97,104.81-9.13,0,0,12.68-28.68-19.91-31.09,0,0,24.81,15.49,9.48,28.29,0,0-10.17,18.77-43.51,11.93-7.63-1.57-44.84-8.46-63.01-22.64,0,0-29.11-17.41-37.88-26.52,0,0-2.11-6.57-18.51-15.35,0,0-83.03-42.92-100.01-61.83Z"/><path class="cls-4" d="M705.63,573.59h0s-25.29,43.13-56.6,53.52c0,0-49.4,12.29-62.09,32.14,0,0-24.98,48.21-110.05,64.28,0,0-32.14-.58-16.07-20.61,0,0,14.18-8.32,21.74,0l7.49,9.19s7.63-23.88-9.39-24.19c0,0-25.71-.99-34.97,15-1.14,1.97-4.13,10.2-4.13,10.2,0,0,6.75,30.01,48.49,20.48,0,0,70.23-12.91,109.66-58.28,0,0,21.35-15,40.95-20.73,0,0,45.21-18.97,68.8-47.32l-3.82-33.67Z"/><path class="cls-14" d="M709.45,607.26l-25.56,41.59s-52.95,26.47-65.7,31.19c0,0-51.05,47.56-77.27,53.55,0,0-94.54,40.97-104.81-9.13,0,0-12.68-28.68,19.91-31.09,0,0-24.81,15.49-9.48,28.29,0,0,10.17,18.77,43.51,11.93,7.63-1.57,44.84-8.46,63.01-22.64,0,0,29.11-17.41,37.88-26.52,0,0,2.11-6.57,18.51-15.35,0,0,83.03-42.92,100.01-61.83Z"/><path class="cls-14" d="M105.17,554.78l8.36-7.28s46.28,36.43,89.85,45.15c0,0,17.43,7.78,25.77,24.79,0,0-68.22-5.28-123.99-62.66Z"/><path class="cls-14" d="M730.32,554.78l-8.36-7.28s-46.28,36.43-89.85,45.15c0,0-17.43,7.78-25.77,24.79,0,0,68.22-5.28,123.99-62.66Z"/><path class="cls-1" d="M105.17,536.16l8.36-7.28s46.28,36.43,89.85,45.15c0,0,17.43,7.78,25.77,24.79,0,0-68.22-5.28-123.99-62.66Z"/><path class="cls-1" d="M730.32,536.16l-8.36-7.28s-46.28,36.43-89.85,45.15c0,0-17.43,7.78-25.77,24.79,0,0,68.22-5.28,123.99-62.66Z"/></svg>