<?xml version="1.0" encoding="UTF-8"?><svg id="Layer_1" xmlns="http://www.w3.org/2000/svg" xmlns:xlink="http://www.w3.org/1999/xlink" viewBox="0 0 1182.62 259.39"><defs><style>.cls-1,.cls-2,.cls-3,.cls-4{fill:none;}.cls-5,.cls-6,.cls-7,.cls-2,.cls-8,.cls-9,.cls-10,.cls-3,.cls-11,.cls-12,.cls-13,.cls-14,.cls-15,.cls-16,.cls-17,.cls-18{stroke-width:1.01px;}.cls-5,.cls-6,.cls-8,.cls-3{stroke-linecap:round;stroke-linejoin:round;}.cls-5,.cls-6,.cls-8,.cls-14{stroke:#280300;}.cls-5,.cls-10,.cls-14{fill:#fff;}.cls-19{fill:#04192f;}.cls-6,.cls-20{fill:#ad2930;}.cls-7{fill:url(#linear-gradient);}.cls-7,.cls-2,.cls-9,.cls-21,.cls-10,.cls-22,.cls-3,.cls-11,.cls-4,.cls-12,.cls-13,.cls-15,.cls-16,.cls-17,.cls-18{stroke:#000;}.cls-7,.cls-2,.cls-9,.cls-21,.cls-10,.cls-22,.cls-11,.cls-4,.cls-12,.cls-13,.cls-14,.cls-15,.cls-16,.cls-17,.cls-18{stroke-miterlimit:10;}.cls-8{fill:#ffb6c0;}.cls-9,.cls-21{fill:#493b82;}.cls-21,.cls-22{stroke-width:1.29px;}.cls-22,.cls-11{fill:#fdbc2b;}.cls-4{stroke-width:1.25px;}.cls-12{fill:#4659f2;}.cls-13{fill:#0f1338;}.cls-15{fill:#221d44;}.cls-16{fill:url(#linear-gradient-3);}.cls-17{fill:url(#linear-gradient-2);}.cls-18{fill:url(#linear-gradient-4);}</style><linearGradient id="linear-gradient" x1="37.64" y1="134.96" x2="239.62" y2="134.96" gradientUnits="userSpaceOnUse"><stop offset="0" stop-color="#000"/><stop offset=".04" stop-color="#142322"/><stop offset=".09" stop-color="#233c3b"/><stop offset=".13" stop-color="#2b4b4a"/><stop offset=".16" stop-color="#2f5150"/><stop offset=".32" stop-color="#366d5f"/><stop offset=".35" stop-color="#3c8171"/><stop offset=".41" stop-color="#449c89"/><stop offset=".44" stop-color="#48a693"/><stop offset=".61" stop-color="#48a693"/><stop offset=".64" stop-color="#419180"/><stop offset=".7" stop-color="#397668"/><stop offset=".73" stop-color="#366d5f"/><stop offset=".79" stop-color="#356a5d"/><stop offset=".83" stop-color="#326058"/><stop offset=".87" stop-color="#2f5150"/><stop offset=".87" stop-color="#2f5150"/><stop offset="1" stop-color="#000"/></linearGradient><linearGradient id="linear-gradient-2" x1="75.06" y1="24.05" x2="202.19" y2="24.05" xlink:href="#linear-gradient"/><linearGradient id="linear-gradient-3" x1="55.49" y1="127.57" x2="70.06" y2="127.57" xlink:href="#linear-gradient"/><linearGradient id="linear-gradient-4" x1="205.64" y1="128.29" x2="220.29" y2="128.29" xlink:href="#linear-gradient"/></defs><path d="M512.07,186.07v-11.64h19.39v-36.66h-19.39v-39.51l-53.65,53.74c-3.94-4.09-8.56-7.47-13.82-10.1-7.82-3.91-16.32-5.89-25.27-5.89s-17.45,1.98-25.27,5.89c-1.42.71-2.79,1.48-4.11,2.29-.89-4.11-2.45-7.97-4.7-11.53-3.52-5.57-8.29-10.06-14.18-13.34-5.13-2.86-10.73-5-16.64-6.36-5.87-1.35-12-2.03-18.22-2.03h-76.63l30.91,30.74v59.46l-30.91,30.74h113.05l-30.72-30.72v-7.47c4.26-.29,8.48-.91,12.53-1.84,4.35-1,8.52-2.42,12.46-4.23.45,8.32,2.99,16.05,7.58,23.01,4.91,7.45,11.5,13.27,19.59,17.32,7.82,3.91,16.32,5.89,25.27,5.89s17.45-1.98,25.27-5.89c7.57-3.78,13.82-9.13,18.61-15.89,1.8,4.59,4.53,8.57,8.2,11.9,6.78,6.17,15.82,9.29,26.86,9.29,6.45,0,12.43-1.47,17.79-4.36,5.26-2.85,9.9-7.07,13.77-12.55l6.39-9.04-22.61-22.61-1.55,1.38Z"/><path d="M693.2,202.08v-27.45h17.37v-28.06l29.82-41.05h-53.47c-13.26,0-24.19,4.12-32.49,12.23-5.79,5.66-9.64,12.46-11.45,20.22h-11.9v7.95c-2.11-1.49-4.34-2.83-6.71-4.01-7.82-3.91-16.32-5.89-25.27-5.89s-17.45,1.98-25.27,5.89c-8.09,4.05-14.68,9.87-19.59,17.32-5.08,7.71-7.65,16.36-7.65,25.71s2.57,18,7.65,25.71c4.91,7.45,11.5,13.27,19.59,17.32,7.82,3.91,16.32,5.89,25.27,5.89,4.78,0,9.44-.57,13.93-1.7h110.24l-30.07-30.07Z"/><path d="M1152.55,202.21v-102.46l-73.29,22.59-.99.31,13.86,13.86c-10.49.95-19.48,5.84-26.74,14.55-1.03,1.23-1.98,2.51-2.87,3.83-.86-1.16-1.78-2.29-2.76-3.38-4.32-4.78-9.66-8.57-15.87-11.27-6.15-2.67-12.66-4.03-19.34-4.03-9.41,0-18.04,2.17-25.64,6.46-6.01,3.38-11.02,7.74-14.98,12.98-1.01-1.44-2.11-2.82-3.31-4.14-4.32-4.78-9.66-8.57-15.87-11.27-6.15-2.67-12.66-4.03-19.34-4.03-9.41,0-18.04,2.17-25.64,6.46-2.03,1.14-3.95,2.4-5.75,3.76v-8.86l-19.4-1.49h-.53c-3.31,0-6.51.35-9.52,1.03v-6.01l-52.76,17.24v-27.16l-7.26-3.63c-6.01-3.01-11.75-5.14-17.07-6.35-5.34-1.21-11.44-1.83-18.13-1.83-7.97,0-15.95,1.53-23.7,4.55-7.58,2.95-14.47,7.09-20.49,12.3-6.3,5.46-11.39,12.18-15.13,19.99-3.85,8.02-5.8,16.7-5.8,25.79s1.96,17.34,5.82,25.31c3.79,7.83,8.83,14.54,14.96,19.94,6.03,5.31,12.95,9.53,20.56,12.54,7.78,3.08,15.8,4.64,23.84,4.64,7.51,0,14.19-.63,19.86-1.87.76-.17,1.53-.35,2.31-.54h103.25l-30.26-30.09v-16.62l12.11,12.11c.6,2.32,1.38,4.58,2.33,6.77,2.58,5.96,6.13,11.18,10.57,15.53,4.46,4.37,9.81,7.86,15.92,10.39,6.1,2.53,12.67,3.81,19.52,3.81,15.89,0,29.74-5.68,41.18-16.87.8.92,1.64,1.82,2.52,2.67,4.46,4.37,9.81,7.86,15.92,10.39,6.1,2.53,12.67,3.81,19.52,3.81,15.42,0,28.93-5.35,40.17-15.91.34.44.7.89,1.06,1.32,8.14,9.77,18.43,14.72,30.6,14.72,4.15,0,8.12-.59,11.78-1.76h74.85l-30.07-30.07ZM784.05,149.91c.52-.74,1.27-1.39,2.22-1.91.75-.41,1.76-.61,3.09-.61.31,0,.52.02.65.03.35.23,1.13.79,2.36,2.01l3.1,3.09h-12.92c.45-.97.96-1.85,1.5-2.62ZM784.59,183.25v11.74c-.28-.15-.5-.32-.65-.49-.84-.93-1.54-1.99-2.14-3.24-.61-1.25-1.06-2.74-1.36-4.41-.49-2.81-.8-5.18-.95-7.26-.04-.52-.07-1.03-.1-1.55l5.21,5.21Z"/><path class="cls-21" d="M279.51,224.32l19.33-19.23v-66.23l-19.33-19.23h56.92c5.61,0,11.13.61,16.4,1.82,5.17,1.19,10.05,3.05,14.51,5.53,4.69,2.62,8.48,6.17,11.26,10.58,2.85,4.52,4.3,9.7,4.3,15.4s-1.45,10.89-4.3,15.41c-2.78,4.4-6.57,7.96-11.26,10.58-4.46,2.49-9.34,4.35-14.51,5.53-5.27,1.21-10.79,1.82-16.4,1.82h-2.44v18.78l19.22,19.22h-73.7ZM336.56,164.56c2.76,0,4.81-.89,6.44-2.81,1.83-2.15,2.72-5.02,2.72-8.77s-.89-6.62-2.72-8.77c-1.63-1.92-3.68-2.81-6.44-2.81h-2.44v23.16h2.44Z"/><path class="cls-4" d="M279.51,224.32l19.33-19.23v-66.23l-19.33-19.23h56.92c5.61,0,11.13.61,16.4,1.82,5.17,1.19,10.05,3.05,14.51,5.53,4.69,2.62,8.48,6.17,11.26,10.58,2.85,4.52,4.3,9.7,4.3,15.4s-1.45,10.89-4.3,15.41c-2.78,4.4-6.57,7.96-11.26,10.58-4.46,2.49-9.34,4.35-14.51,5.53-5.27,1.21-10.79,1.82-16.4,1.82h-2.44v18.78l19.22,19.22h-73.7ZM336.56,164.56c2.76,0,4.81-.89,6.44-2.81,1.83-2.15,2.72-5.02,2.72-8.77s-.89-6.62-2.72-8.77c-1.63-1.92-3.68-2.81-6.44-2.81h-2.44v23.16h2.44Z"/><path class="cls-21" d="M419.55,226.28c-7.67,0-14.95-1.69-21.63-5.03-6.8-3.4-12.33-8.28-16.44-14.52-4.19-6.36-6.31-13.5-6.31-21.23s2.12-14.88,6.31-21.23c4.11-6.24,9.64-11.12,16.44-14.52,6.68-3.34,13.96-5.03,21.63-5.03s14.95,1.69,21.63,5.03c6.8,3.4,12.33,8.28,16.44,14.52,4.19,6.36,6.31,13.5,6.31,21.23s-2.12,14.88-6.31,21.23c-4.11,6.24-9.64,11.12-16.44,14.52-6.68,3.34-13.96,5.03-21.63,5.03ZM419.48,164.97c-.99,0-1.47.18-1.74.32-.63.31-1.13.67-1.5,1.07-.14.15-.5.62-.89,1.78-.48,1.44-.81,2.62-1.03,3.63-.21,1.01-.38,2.44-.49,4.24-.13,2-.19,3.52-.19,4.65v10.19c0,1.13.06,2.65.19,4.65.11,1.81.28,3.24.49,4.24.22,1.03.55,2.21,1,3.5.4,1.14.77,1.62.91,1.78.37.4.87.76,1.5,1.07.28.14.76.32,1.75.32h1.88c.56-.3,1.02-.63,1.36-1,.18-.19.53-.67.91-1.78.45-1.3.79-2.47,1-3.5.14-.68.34-1.98.49-4.31.12-1.98.19-3.56.19-4.72v-10.19c0-1.15-.06-2.74-.19-4.72-.15-2.33-.35-3.63-.49-4.31-.23-1.11-.58-2.35-1.03-3.69-.38-1.15-.75-1.63-.89-1.78-.37-.4-.87-.76-1.5-1.07-.53-.26-1.08-.39-1.74-.39ZM439.04,179.79c.09,1.95.14,4.05.14,6.29,0,1.7-.04,3.39-.11,5.08.28-1.67.42-3.42.42-5.21,0-2.24-.15-4.29-.45-6.16ZM389.22,182.95c-.12,1-.18,2.03-.18,3.07,0,1.21.08,2.39.23,3.54-.08-1.21-.12-2.44-.12-3.67,0-1,.02-1.98.07-2.94Z"/><path class="cls-4" d="M419.55,226.28c-7.67,0-14.95-1.69-21.63-5.03-6.8-3.4-12.33-8.28-16.44-14.52-4.19-6.36-6.31-13.5-6.31-21.23s2.12-14.88,6.31-21.23c4.11-6.24,9.64-11.12,16.44-14.52,6.68-3.34,13.96-5.03,21.63-5.03s14.95,1.69,21.63,5.03c6.8,3.4,12.33,8.28,16.44,14.52,4.19,6.36,6.31,13.5,6.31,21.23s-2.12,14.88-6.31,21.23c-4.11,6.24-9.64,11.12-16.44,14.52-6.68,3.34-13.96,5.03-21.63,5.03ZM419.48,164.97c-.99,0-1.47.18-1.74.32-.63.31-1.13.67-1.5,1.07-.14.15-.5.62-.89,1.78-.48,1.44-.81,2.62-1.03,3.63-.21,1.01-.38,2.44-.49,4.24-.13,2-.19,3.52-.19,4.65v10.19c0,1.13.06,2.65.19,4.65.11,1.81.28,3.24.49,4.24.22,1.03.55,2.21,1,3.5.4,1.14.77,1.62.91,1.78.37.4.87.76,1.5,1.07.28.14.76.32,1.75.32h1.88c.56-.3,1.02-.63,1.36-1,.18-.19.53-.67.91-1.78.45-1.3.79-2.47,1-3.5.14-.68.34-1.98.49-4.31.12-1.98.19-3.56.19-4.72v-10.19c0-1.15-.06-2.74-.19-4.72-.15-2.33-.35-3.63-.49-4.31-.23-1.11-.58-2.35-1.03-3.69-.38-1.15-.75-1.63-.89-1.78-.37-.4-.87-.76-1.5-1.07-.53-.26-1.08-.39-1.74-.39ZM439.04,179.79c.09,1.95.14,4.05.14,6.29,0,1.7-.04,3.39-.11,5.08.28-1.67.42-3.42.42-5.21,0-2.24-.15-4.29-.45-6.16ZM389.22,182.95c-.12,1-.18,2.03-.18,3.07,0,1.21.08,2.39.23,3.54-.08-1.21-.12-2.44-.12-3.67,0-1,.02-1.98.07-2.94Z"/><path class="cls-21" d="M498.49,225.7c-8.95,0-16.15-2.42-21.39-7.18-5.38-4.89-8.1-11.8-8.1-20.55v-25.03h-19.21l54.36-54.45v27.99h19.39v20.39h-19.39v36.41c.21-.06.42-.12.62-.19,1.47-.55,3.28-1.76,5.22-3.49l3.53-3.15,12.33,12.33-2.44,3.44c-6.32,8.94-14.7,13.48-24.92,13.48Z"/><path class="cls-4" d="M498.49,225.7c-8.95,0-16.15-2.42-21.39-7.18-5.38-4.89-8.1-11.8-8.1-20.55v-25.03h-19.21l54.36-54.45v27.99h19.39v20.39h-19.39v36.41c.21-.06.42-.12.62-.19,1.47-.55,3.28-1.76,5.22-3.49l3.53-3.15,12.33,12.33-2.44,3.44c-6.32,8.94-14.7,13.48-24.92,13.48Z"/><path class="cls-21" d="M599.31,226.28c-7.67,0-14.95-1.69-21.63-5.03-6.8-3.4-12.33-8.28-16.44-14.52-4.19-6.36-6.31-13.5-6.31-21.23s2.12-14.88,6.31-21.23c4.11-6.24,9.64-11.12,16.44-14.52,6.68-3.34,13.96-5.03,21.63-5.03s14.95,1.69,21.63,5.03c6.8,3.4,12.33,8.28,16.44,14.52,4.19,6.36,6.31,13.5,6.31,21.23s-2.12,14.88-6.31,21.23c-4.11,6.24-9.64,11.12-16.44,14.52-6.68,3.34-13.96,5.03-21.63,5.03ZM599.24,164.97c-.99,0-1.47.18-1.74.32-.63.31-1.13.67-1.5,1.07-.14.15-.5.62-.89,1.78-.48,1.44-.81,2.62-1.03,3.63-.21,1.01-.38,2.44-.49,4.24-.13,2-.19,3.52-.19,4.65v10.19c0,1.13.06,2.65.19,4.65.11,1.81.28,3.24.49,4.24.22,1.03.55,2.21,1,3.5.4,1.14.77,1.62.91,1.78.37.4.87.76,1.5,1.07.28.14.76.32,1.75.32h1.88c.56-.3,1.02-.63,1.36-1,.18-.19.53-.67.91-1.78.45-1.3.79-2.47,1-3.5.14-.68.34-1.98.49-4.31.12-1.98.19-3.56.19-4.72v-10.19c0-1.15-.06-2.74-.19-4.72-.15-2.33-.35-3.63-.49-4.31-.23-1.11-.58-2.35-1.03-3.69-.38-1.15-.75-1.63-.89-1.78-.37-.4-.87-.76-1.5-1.07-.53-.26-1.08-.39-1.74-.39ZM618.8,179.79c.09,1.95.14,4.05.14,6.29,0,1.7-.04,3.39-.11,5.08.28-1.67.42-3.42.42-5.21,0-2.24-.15-4.29-.45-6.16ZM568.98,182.95c-.12,1-.18,2.03-.18,3.07,0,1.21.08,2.39.23,3.54-.08-1.21-.12-2.44-.12-3.67,0-1,.02-1.98.07-2.94Z"/><path class="cls-4" d="M599.31,226.28c-7.67,0-14.95-1.69-21.63-5.03-6.8-3.4-12.33-8.28-16.44-14.52-4.19-6.36-6.31-13.5-6.31-21.23s2.12-14.88,6.31-21.23c4.11-6.24,9.64-11.12,16.44-14.52,6.68-3.34,13.96-5.03,21.63-5.03s14.95,1.69,21.63,5.03c6.8,3.4,12.33,8.28,16.44,14.52,4.19,6.36,6.31,13.5,6.31,21.23s-2.12,14.88-6.31,21.23c-4.11,6.24-9.64,11.12-16.44,14.52-6.68,3.34-13.96,5.03-21.63,5.03ZM599.24,164.97c-.99,0-1.47.18-1.74.32-.63.31-1.13.67-1.5,1.07-.14.15-.5.62-.89,1.78-.48,1.44-.81,2.62-1.03,3.63-.21,1.01-.38,2.44-.49,4.24-.13,2-.19,3.52-.19,4.65v10.19c0,1.13.06,2.65.19,4.65.11,1.81.28,3.24.49,4.24.22,1.03.55,2.21,1,3.5.4,1.14.77,1.62.91,1.78.37.4.87.76,1.5,1.07.28.14.76.32,1.75.32h1.88c.56-.3,1.02-.63,1.36-1,.18-.19.53-.67.91-1.78.45-1.3.79-2.47,1-3.5.14-.68.34-1.98.49-4.31.12-1.98.19-3.56.19-4.72v-10.19c0-1.15-.06-2.74-.19-4.72-.15-2.33-.35-3.63-.49-4.31-.23-1.11-.58-2.35-1.03-3.69-.38-1.15-.75-1.63-.89-1.78-.37-.4-.87-.76-1.5-1.07-.53-.26-1.08-.39-1.74-.39ZM618.8,179.79c.09,1.95.14,4.05.14,6.29,0,1.7-.04,3.39-.11,5.08.28-1.67.42-3.42.42-5.21,0-2.24-.15-4.29-.45-6.16ZM568.98,182.95c-.12,1-.18,2.03-.18,3.07,0,1.21.08,2.39.23,3.54-.08-1.21-.12-2.44-.12-3.67,0-1,.02-1.98.07-2.94Z"/><path class="cls-21" d="M631.56,224.59l18.57-18.57v-38.96h-10.71v-20.39h10.79c.54-8.93,3.94-16.5,10.11-22.54,6.73-6.58,15.75-9.91,26.81-9.91h37.51l-23.57,32.45h1.58v20.39h-17.37v38.96l18.57,18.57h-72.29ZM698.1,146.67l-11.35-11.35c-.22.2-.42.41-.61.64-.59.7-.85,1.5-.85,2.59v8.12h12.82Z"/><path class="cls-4" d="M631.56,224.59l18.57-18.57v-38.96h-10.71v-20.39h10.79c.54-8.93,3.94-16.5,10.11-22.54,6.73-6.58,15.75-9.91,26.81-9.91h37.51l-23.57,32.45h1.58v20.39h-17.37v38.96l18.57,18.57h-72.29ZM698.1,146.67l-11.35-11.35c-.22.2-.42.41-.61.64-.59.7-.85,1.5-.85,2.59v8.12h12.82Z"/><path class="cls-21" d="M789.64,226.87c-7,0-14.02-1.37-20.84-4.07-6.74-2.67-12.85-6.4-18.18-11.08-5.32-4.68-9.7-10.53-13.02-17.38-3.32-6.86-5.01-14.18-5.01-21.77s1.68-15.35,5-22.27c3.25-6.79,7.67-12.63,13.12-17.36,5.31-4.6,11.4-8.26,18.11-10.87,6.81-2.65,13.79-4,20.75-4,6.08,0,11.58.55,16.32,1.63,4.68,1.06,9.8,2.98,15.23,5.69l2.77,1.38v34.46h23.22l-19.11,19.52v37.54l-3.09,1.28c-6.3,2.61-12.07,4.5-17.17,5.62-5.1,1.12-11.19,1.68-18.11,1.68ZM789.58,139.83c-2.74,0-5.03.53-7,1.61-2.05,1.12-3.72,2.59-4.97,4.36-1.45,2.07-2.66,4.53-3.59,7.32-1.03,3.08-1.73,6.07-2.14,9.14-.41,3.04-.61,6.3-.61,9.98,0,2.85.1,5.64.31,8.51.17,2.35.52,4.99,1.05,8.06.42,2.42,1.11,4.64,2.05,6.57.94,1.94,2.05,3.61,3.4,5.11,1.15,1.28,2.66,2.28,4.5,2.96,2.09.79,4.51,1.18,7.19,1.18.92,0,1.98-.26,3.16-.78v-23.42l-19.22-19.22h41.66l-17.05-16.98c-1.7-1.7-3.24-2.91-4.58-3.61-1.04-.54-2.44-.81-4.16-.81ZM747.07,169.61c-.06.81-.08,1.62-.08,2.44,0,.75.03,1.49.08,2.24-.02-.72-.03-1.44-.03-2.17,0-.84.01-1.68.04-2.5Z"/><path class="cls-4" d="M789.64,226.87c-7,0-14.02-1.37-20.84-4.07-6.74-2.67-12.85-6.4-18.18-11.08-5.32-4.68-9.7-10.53-13.02-17.38-3.32-6.86-5.01-14.18-5.01-21.77s1.68-15.35,5-22.27c3.25-6.79,7.67-12.63,13.12-17.36,5.31-4.6,11.4-8.26,18.11-10.87,6.81-2.65,13.79-4,20.75-4,6.08,0,11.58.55,16.32,1.63,4.68,1.06,9.8,2.98,15.23,5.69l2.77,1.38v34.46h23.22l-19.11,19.52v37.54l-3.09,1.28c-6.3,2.61-12.07,4.5-17.17,5.62-5.1,1.12-11.19,1.68-18.11,1.68ZM789.58,139.83c-2.74,0-5.03.53-7,1.61-2.05,1.12-3.72,2.59-4.97,4.36-1.45,2.07-2.66,4.53-3.59,7.32-1.03,3.08-1.73,6.07-2.14,9.14-.41,3.04-.61,6.3-.61,9.98,0,2.85.1,5.64.31,8.51.17,2.35.52,4.99,1.05,8.06.42,2.42,1.11,4.64,2.05,6.57.94,1.94,2.05,3.61,3.4,5.11,1.15,1.28,2.66,2.28,4.5,2.96,2.09.79,4.51,1.18,7.19,1.18.92,0,1.98-.26,3.16-.78v-23.42l-19.22-19.22h41.66l-17.05-16.98c-1.7-1.7-3.24-2.91-4.58-3.61-1.04-.54-2.44-.81-4.16-.81ZM747.07,169.61c-.06.81-.08,1.62-.08,2.44,0,.75.03,1.49.08,2.24-.02-.72-.03-1.44-.03-2.17,0-.84.01-1.68.04-2.5Z"/><path class="cls-21" d="M822.94,224.45l18.57-18.57v-30.92l-15.53-15.53,50.68-16.56v7.15c4.89-3.49,10.8-5.25,17.65-5.25h.19l11.6.89v50.02l-24.11-24.11-5.33,5.4v28.9l18.68,18.58h-72.4Z"/><path class="cls-4" d="M822.94,224.45l18.57-18.57v-30.92l-15.53-15.53,50.68-16.56v7.15c4.89-3.49,10.8-5.25,17.65-5.25h.19l11.6.89v50.02l-24.11-24.11-5.33,5.4v28.9l18.68,18.58h-72.4Z"/><path class="cls-21" d="M945.24,226.35c-5.78,0-11.3-1.07-16.41-3.19-5.14-2.13-9.63-5.05-13.34-8.69-3.68-3.6-6.64-7.96-8.8-12.95-2.14-4.94-3.22-10.28-3.22-15.9,0-7.46,1.81-14.36,5.37-20.53,3.56-6.16,8.65-11.14,15.13-14.78,6.37-3.59,13.66-5.41,21.65-5.41,5.56,0,10.98,1.13,16.1,3.35,5.14,2.24,9.54,5.35,13.08,9.26,3.56,3.94,6.16,8.56,7.74,13.72,1.64,5.39,1.66,11.19.05,17.24l-.99,3.73-39.51-.06c.05,2.71.37,5.06.96,7,.51,1.71,1.21,3.04,2.01,3.84.84.84,1.74,1.43,2.66,1.77,1.15.42,2.35.62,3.66.62,5.19,0,10.47-2.59,15.7-7.71l3.56-3.48,13.82,13.96-3.57,3.52c-9.9,9.75-21.89,14.69-35.64,14.69ZM918.16,179.95c-.37,1.8-.56,3.68-.56,5.67,0,1.79.17,3.52.5,5.16-.08-1.7-.12-3.49-.12-5.36s.06-3.72.18-5.48ZM948.66,171.87c0-.07.02-.14.02-.21.13-1.29.05-2.5-.25-3.6-.23-.87-.62-1.54-1.23-2.11-.22-.21-.41-.32-.56-.39h-.82c-.57,0-1.07,0-1.64.62-.56.6-1.45,2.1-1.9,5.7h6.37Z"/><path class="cls-4" d="M945.24,226.35c-5.78,0-11.3-1.07-16.41-3.19-5.14-2.13-9.63-5.05-13.34-8.69-3.68-3.6-6.64-7.96-8.8-12.95-2.14-4.94-3.22-10.28-3.22-15.9,0-7.46,1.81-14.36,5.37-20.53,3.56-6.16,8.65-11.14,15.13-14.78,6.37-3.59,13.66-5.41,21.65-5.41,5.56,0,10.98,1.13,16.1,3.35,5.14,2.24,9.54,5.35,13.08,9.26,3.56,3.94,6.16,8.56,7.74,13.72,1.64,5.39,1.66,11.19.05,17.24l-.99,3.73-39.51-.06c.05,2.71.37,5.06.96,7,.51,1.71,1.21,3.04,2.01,3.84.84.84,1.74,1.43,2.66,1.77,1.15.42,2.35.62,3.66.62,5.19,0,10.47-2.59,15.7-7.71l3.56-3.48,13.82,13.96-3.57,3.52c-9.9,9.75-21.89,14.69-35.64,14.69ZM918.16,179.95c-.37,1.8-.56,3.68-.56,5.67,0,1.79.17,3.52.5,5.16-.08-1.7-.12-3.49-.12-5.36s.06-3.72.18-5.48ZM948.66,171.87c0-.07.02-.14.02-.21.13-1.29.05-2.5-.25-3.6-.23-.87-.62-1.54-1.23-2.11-.22-.21-.41-.32-.56-.39h-.82c-.57,0-1.07,0-1.64.62-.56.6-1.45,2.1-1.9,5.7h6.37Z"/><path class="cls-21" d="M1024.38,226.35c-5.78,0-11.3-1.07-16.41-3.19-5.14-2.13-9.63-5.05-13.34-8.69-3.68-3.6-6.64-7.96-8.8-12.95-2.14-4.94-3.22-10.28-3.22-15.9,0-7.46,1.81-14.36,5.37-20.53,3.56-6.16,8.65-11.14,15.13-14.78,6.37-3.59,13.66-5.41,21.65-5.41,5.56,0,10.98,1.13,16.1,3.35,5.14,2.24,9.54,5.35,13.08,9.26,3.56,3.94,6.16,8.56,7.74,13.72,1.64,5.39,1.66,11.19.05,17.24l-.99,3.73-39.51-.06c.05,2.71.37,5.06.96,7,.51,1.71,1.21,3.04,2.01,3.84.84.84,1.74,1.43,2.66,1.77,1.15.42,2.35.62,3.66.62,5.19,0,10.47-2.59,15.7-7.71l3.56-3.48,13.82,13.96-3.57,3.52c-9.9,9.75-21.89,14.69-35.64,14.69ZM997.29,179.95c-.37,1.8-.56,3.68-.56,5.67,0,1.79.17,3.52.5,5.16-.08-1.7-.12-3.49-.12-5.36s.06-3.72.18-5.48ZM1027.8,171.87c0-.07.02-.14.02-.21.13-1.29.05-2.5-.25-3.6-.23-.87-.62-1.54-1.23-2.11-.22-.21-.41-.32-.56-.39h-.82c-.57,0-1.07,0-1.64.62-.56.6-1.45,2.1-1.9,5.7h6.37Z"/><path class="cls-4" d="M1024.38,226.35c-5.78,0-11.3-1.07-16.41-3.19-5.14-2.13-9.63-5.05-13.34-8.69-3.68-3.6-6.64-7.96-8.8-12.95-2.14-4.94-3.22-10.28-3.22-15.9,0-7.46,1.81-14.36,5.37-20.53,3.56-6.16,8.65-11.14,15.13-14.78,6.37-3.59,13.66-5.41,21.65-5.41,5.56,0,10.98,1.13,16.1,3.35,5.14,2.24,9.54,5.35,13.08,9.26,3.56,3.94,6.16,8.56,7.74,13.72,1.64,5.39,1.66,11.19.05,17.24l-.99,3.73-39.51-.06c.05,2.71.37,5.06.96,7,.51,1.71,1.21,3.04,2.01,3.84.84.84,1.74,1.43,2.66,1.77,1.15.42,2.35.62,3.66.62,5.19,0,10.47-2.59,15.7-7.71l3.56-3.48,13.82,13.96-3.57,3.52c-9.9,9.75-21.89,14.69-35.64,14.69ZM997.29,179.95c-.37,1.8-.56,3.68-.56,5.67,0,1.79.17,3.52.5,5.16-.08-1.7-.12-3.49-.12-5.36s.06-3.72.18-5.48ZM1027.8,171.87c0-.07.02-.14.02-.21.13-1.29.05-2.5-.25-3.6-.23-.87-.62-1.54-1.23-2.11-.22-.21-.41-.32-.56-.39h-.82c-.57,0-1.07,0-1.64.62-.56.6-1.45,2.1-1.9,5.7h6.37Z"/><path class="cls-21" d="M1096.21,226.48c-9.64,0-17.83-3.97-24.35-11.79-6.32-7.58-9.52-17.31-9.52-28.93s3.2-21.35,9.52-28.93c6.52-7.82,14.71-11.79,24.35-11.79,4.61,0,8.94.96,12.87,2.84.12.06.24.12.37.18l-.02-5.4-15.65-15.65,50.85-15.68v94.82l18.57,18.57h-53.78v-1.22c-.07.03-.13.07-.2.1-3.82,1.91-8.2,2.88-13.01,2.88ZM1100.43,187.06c.06,7.01.63,12.19,1.7,15.4.82,2.45,1.64,2.45,2.24,2.45.68,0,1.52-.4,2.44-1.15,1.02-.84,1.9-1.9,2.61-3.16v-29.44c-.72-1.27-1.63-2.35-2.69-3.24-.95-.79-1.77-1.2-2.36-1.2s-1.36,0-2.17,2.45c-1.13,3.39-1.7,8.96-1.7,16.57v1.18l-.06.12ZM1076.67,178.86c-.36,2.07-.53,4.26-.53,6.57,0,2.62.21,5.02.63,7.26-.22-2.24-.33-4.59-.33-6.99s.08-4.61.23-6.83Z"/><path class="cls-4" d="M1096.21,226.48c-9.64,0-17.83-3.97-24.35-11.79-6.32-7.58-9.52-17.31-9.52-28.93s3.2-21.35,9.52-28.93c6.52-7.82,14.71-11.79,24.35-11.79,4.61,0,8.94.96,12.87,2.84.12.06.24.12.37.18l-.02-5.4-15.65-15.65,50.85-15.68v94.82l18.57,18.57h-53.78v-1.22c-.07.03-.13.07-.2.1-3.82,1.91-8.2,2.88-13.01,2.88ZM1100.43,187.06c.06,7.01.63,12.19,1.7,15.4.82,2.45,1.64,2.45,2.24,2.45.68,0,1.52-.4,2.44-1.15,1.02-.84,1.9-1.9,2.61-3.16v-29.44c-.72-1.27-1.63-2.35-2.69-3.24-.95-.79-1.77-1.2-2.36-1.2s-1.36,0-2.17,2.45c-1.13,3.39-1.7,8.96-1.7,16.57v1.18l-.06.12ZM1076.67,178.86c-.36,2.07-.53,4.26-.53,6.57,0,2.62.21,5.02.63,7.26-.22-2.24-.33-4.59-.33-6.99s.08-4.61.23-6.83Z"/><path class="cls-22" d="M374.34,164.82c-2.35,3.72-5.48,6.66-9.47,8.88-3.98,2.22-8.36,3.92-13.19,5.03-4.83,1.11-9.93,1.7-15.28,1.7h-7.44v25.86l12.14,12.15h-49.49l12.21-12.15v-70.39l-12.21-12.15h44.79c5.35,0,10.45.59,15.28,1.7,4.83,1.11,9.21,2.81,13.19,5.03,3.98,2.22,7.12,5.16,9.47,8.88,2.35,3.72,3.53,7.97,3.53,12.73s-1.18,9.01-3.53,12.73ZM316.49,127.34l-8.55,8.55v70.39l8.55,8.55v-87.5ZM346.79,140.08c-2.61-3.07-6.01-4.57-10.25-4.57h-7.44v33.17h7.44c4.24,0,7.64-1.5,10.25-4.57,2.61-3.07,3.92-7.05,3.92-12.01s-1.31-8.95-3.92-12.01ZM346.33,134.98c2.68,1.89,4.77,4.31,6.27,7.31,1.5,3,2.22,6.27,2.22,9.86s-.72,6.86-2.22,9.86c-1.5,3-3.59,5.42-6.27,7.31,4.83,0,9.08-1.63,12.67-4.9,3.59-3.26,5.42-7.31,5.42-12.21s-1.76-8.95-5.35-12.21c-3.59-3.26-7.77-4.9-12.6-4.9l-.13-.13Z"/><path class="cls-22" d="M385.64,166.13c3.66-5.55,8.49-9.79,14.5-12.8,6.01-3,12.47-4.51,19.39-4.51s13.39,1.5,19.39,4.51c6.01,3,10.84,7.25,14.5,12.8,3.66,5.55,5.48,11.69,5.48,18.48s-1.83,12.93-5.48,18.48c-3.66,5.55-8.49,9.79-14.5,12.8-6.01,3-12.47,4.51-19.39,4.51s-13.39-1.5-19.39-4.51c-6.01-3-10.84-7.25-14.5-12.8-3.66-5.55-5.48-11.69-5.48-18.48s1.83-12.93,5.48-18.48ZM407.31,214.91c-.07-.07-.39-.33-.98-.78-.59-.46-1.11-.91-1.57-1.37s-1.04-1.04-1.83-1.83c-.78-.78-1.44-1.63-2.02-2.55-.59-.91-1.24-1.96-1.96-3.13-.72-1.18-1.37-2.48-1.89-3.92s-1.04-2.94-1.5-4.57c-.46-1.63-.78-3.46-1.04-5.49-.26-2.02-.39-4.11-.39-6.27,0-3.53.33-6.86,1.04-9.93.72-3.07,1.5-5.55,2.35-7.44.85-1.89,1.96-3.79,3.33-5.62,1.37-1.83,2.42-3.07,3.13-3.72.72-.65,1.63-1.5,2.74-2.48.26-.2.46-.33.52-.39-1.31.26-2.81.78-4.57,1.57-1.76.78-3.72,2.02-5.94,3.66s-4.24,3.53-6.07,5.68c-1.83,2.15-3.4,4.9-4.7,8.23-1.31,3.33-1.96,6.86-1.96,10.58s.65,7.44,1.96,10.77c1.31,3.33,2.87,6.07,4.7,8.16,1.83,2.09,3.92,3.98,6.27,5.62,2.35,1.63,4.31,2.81,5.94,3.53,1.63.72,3.07,1.24,4.31,1.57l.13.13ZM419.46,210.99c1.5,0,2.81-.33,3.98-.91,1.18-.59,2.15-1.31,2.94-2.15.78-.85,1.44-2.02,1.96-3.53.52-1.5.91-2.87,1.18-4.11.26-1.24.46-2.94.59-5.03.13-2.09.2-3.79.2-5.03v-10.19c0-1.24-.07-2.94-.2-5.03-.13-2.09-.33-3.79-.59-5.03-.26-1.24-.65-2.68-1.18-4.24-.52-1.57-1.18-2.74-1.96-3.59-.78-.85-1.76-1.57-2.94-2.15-1.18-.59-2.48-.91-3.98-.91s-2.81.26-3.98.85c-1.18.59-2.15,1.31-2.94,2.15-.78.85-1.44,2.02-1.96,3.59-.52,1.57-.91,2.94-1.18,4.18-.26,1.24-.46,2.87-.59,4.96-.13,2.09-.2,3.72-.2,4.96v10.19c0,1.24.07,2.87.2,4.96s.33,3.72.59,4.96c.26,1.24.65,2.61,1.18,4.11.52,1.5,1.18,2.68,1.96,3.53s1.76,1.57,2.94,2.15c1.18.59,2.48.85,3.98.85v.46ZM428.73,159.4c.07.2.46.85,1.11,1.96.65,1.11,1.18,2.09,1.5,3,.33.91.72,2.29,1.24,4.11.52,1.83.91,4.11,1.18,6.92.26,2.81.39,6.07.39,9.79,0,3.07-.13,5.88-.33,8.42-.2,2.55-.46,4.64-.78,6.2-.33,1.57-.72,3.07-1.18,4.44-.46,1.37-.85,2.35-1.11,2.94-.26.59-.65,1.24-1.11,1.96-.46.72-.72,1.11-.78,1.18,1.31-.46,2.61-1.04,3.85-1.76,1.24-.72,2.61-1.76,4.11-3.13,1.5-1.37,2.81-2.94,3.85-4.7,1.04-1.76,1.96-3.98,2.68-6.73.72-2.74,1.11-5.75,1.11-8.95,0-13.65-5.16-22.14-15.54-25.53l-.2-.13Z"/><path class="cls-22" d="M499.12,160.97v46.43c2.81.46,5.29.26,7.38-.52s4.37-2.29,6.79-4.44l6.01,6.01c-5.35,7.57-12.28,11.36-20.83,11.36-7.7,0-13.71-1.96-18.02-5.88-4.31-3.92-6.46-9.53-6.46-16.85v-30.04h-12.14l37.28-37.35v20.89h19.39v10.38h-19.39ZM477.96,156.47v40.61c0,4.11.85,7.51,2.48,10.19,1.63,2.68,3.66,4.7,6.07,6.07v-65.36l-8.55,8.49Z"/><path class="cls-22" d="M565.4,166.13c3.66-5.55,8.49-9.79,14.5-12.8,6.01-3,12.47-4.51,19.39-4.51s13.39,1.5,19.39,4.51c6.01,3,10.84,7.25,14.5,12.8,3.66,5.55,5.48,11.69,5.48,18.48s-1.83,12.93-5.48,18.48c-3.66,5.55-8.49,9.79-14.5,12.8-6.01,3-12.47,4.51-19.39,4.51s-13.39-1.5-19.39-4.51c-6.01-3-10.84-7.25-14.5-12.8-3.66-5.55-5.48-11.69-5.48-18.48s1.83-12.93,5.48-18.48ZM587.07,214.91c-.07-.07-.39-.33-.98-.78-.59-.46-1.11-.91-1.57-1.37s-1.04-1.04-1.83-1.83c-.78-.78-1.44-1.63-2.02-2.55-.59-.91-1.24-1.96-1.96-3.13-.72-1.18-1.37-2.48-1.89-3.92s-1.04-2.94-1.5-4.57c-.46-1.63-.78-3.46-1.04-5.49-.26-2.02-.39-4.11-.39-6.27,0-3.53.33-6.86,1.04-9.93.72-3.07,1.5-5.55,2.35-7.44.85-1.89,1.96-3.79,3.33-5.62,1.37-1.83,2.42-3.07,3.13-3.72.72-.65,1.63-1.5,2.74-2.48.26-.2.46-.33.52-.39-1.31.26-2.81.78-4.57,1.57-1.76.78-3.72,2.02-5.94,3.66-2.22,1.63-4.24,3.53-6.07,5.68-1.83,2.15-3.4,4.9-4.7,8.23-1.31,3.33-1.96,6.86-1.96,10.58s.65,7.44,1.96,10.77,2.87,6.07,4.7,8.16c1.83,2.09,3.92,3.98,6.27,5.62,2.35,1.63,4.31,2.81,5.94,3.53,1.63.72,3.07,1.24,4.31,1.57l.13.13ZM599.22,210.99c1.5,0,2.81-.33,3.98-.91,1.18-.59,2.15-1.31,2.94-2.15.78-.85,1.44-2.02,1.96-3.53.52-1.5.91-2.87,1.18-4.11.26-1.24.46-2.94.59-5.03.13-2.09.2-3.79.2-5.03v-10.19c0-1.24-.07-2.94-.2-5.03-.13-2.09-.33-3.79-.59-5.03-.26-1.24-.65-2.68-1.18-4.24-.52-1.57-1.18-2.74-1.96-3.59-.78-.85-1.76-1.57-2.94-2.15-1.18-.59-2.48-.91-3.98-.91s-2.81.26-3.98.85c-1.18.59-2.15,1.31-2.94,2.15-.78.85-1.44,2.02-1.96,3.59-.52,1.57-.91,2.94-1.18,4.18-.26,1.24-.46,2.87-.59,4.96-.13,2.09-.2,3.72-.2,4.96v10.19c0,1.24.07,2.87.2,4.96.13,2.09.33,3.72.59,4.96.26,1.24.65,2.61,1.18,4.11.52,1.5,1.18,2.68,1.96,3.53s1.76,1.57,2.94,2.15c1.18.59,2.48.85,3.98.85v.46ZM608.49,159.4c.07.2.46.85,1.11,1.96s1.18,2.09,1.5,3c.33.91.72,2.29,1.24,4.11.52,1.83.91,4.11,1.18,6.92.26,2.81.39,6.07.39,9.79,0,3.07-.13,5.88-.33,8.42-.2,2.55-.46,4.64-.78,6.2-.33,1.57-.72,3.07-1.18,4.44-.46,1.37-.85,2.35-1.11,2.94-.26.59-.65,1.24-1.11,1.96-.46.72-.72,1.11-.78,1.18,1.31-.46,2.61-1.04,3.85-1.76,1.24-.72,2.61-1.76,4.11-3.13,1.5-1.37,2.81-2.94,3.85-4.7,1.04-1.76,1.96-3.98,2.68-6.73.72-2.74,1.11-5.75,1.11-8.95,0-13.65-5.16-22.14-15.54-25.53l-.2-.13Z"/><path class="cls-22" d="M699.19,139.82l-11.62-11.62c-2.15.78-3.92,2.02-5.29,3.66-1.37,1.63-2.02,3.59-2.02,5.81v13.12h17.37v10.38h-17.37v46.03l11.49,11.49h-48.12l11.49-11.49v-46.03h-10.71v-10.38h10.71v-2.42c0-8.68,2.87-15.87,8.68-21.55,5.81-5.68,13.58-8.49,23.31-8.49h27.69l-15.61,21.48ZM667.71,142.43c0-4.05.78-7.84,2.35-11.3,1.57-3.46,3.33-5.88,5.22-7.25-4.77,1.5-8.68,4.51-11.69,8.95-3,4.44-4.51,9.27-4.51,14.43v59.81l8.55,8.55v-73.26l.07.07Z"/><path class="cls-22" d="M822.99,177.82v36.24c-6.14,2.55-11.56,4.31-16.32,5.35-4.77,1.04-10.45,1.57-17.04,1.57s-12.73-1.24-19-3.72c-6.27-2.48-11.82-5.88-16.72-10.19-4.9-4.31-8.82-9.6-11.82-15.8-3-6.2-4.51-12.73-4.51-19.59s1.5-13.84,4.51-20.11c3-6.27,6.99-11.49,11.88-15.74,4.9-4.24,10.45-7.57,16.65-9.99,6.2-2.42,12.54-3.66,18.94-3.66,5.81,0,10.9.52,15.21,1.5,4.31.98,9.01,2.74,14.1,5.29v27.82l-17.04-16.98c-2.09-2.09-4.05-3.59-5.81-4.51-1.76-.91-3.92-1.37-6.46-1.37-3.53,0-6.66.72-9.4,2.22-2.74,1.5-4.96,3.46-6.66,5.88-1.7,2.42-3.13,5.29-4.24,8.62-1.11,3.33-1.89,6.66-2.35,10.06-.46,3.4-.65,6.92-.65,10.64,0,3.26.13,6.2.33,8.88.2,2.68.59,5.55,1.11,8.55.52,3,1.37,5.62,2.48,7.9,1.11,2.29,2.48,4.38,4.18,6.27,1.7,1.89,3.85,3.33,6.46,4.31,2.61.98,5.62,1.5,8.95,1.5,2.42,0,5.16-.91,8.16-2.81v-28.47l-12.15-12.15h49.43l-12.21,12.47ZM770.36,212.56c-12.21-10.38-18.35-24.16-18.35-41.33,0-18.15,6.14-31.93,18.35-41.33-1.5.39-3.33,1.24-5.55,2.55-2.22,1.31-4.64,3.2-7.31,5.68-2.68,2.48-5.16,5.29-7.44,8.36-2.29,3.07-4.18,6.79-5.75,11.17-1.57,4.38-2.35,8.88-2.35,13.52s.78,8.81,2.35,13.12,3.53,8.03,5.81,11.17c2.29,3.13,4.77,6.01,7.44,8.55,2.68,2.55,5.16,4.51,7.38,5.94,2.22,1.44,4.05,2.29,5.48,2.61h-.07ZM810.45,168.94l-8.55,8.55v28.21l8.55,8.55v-45.32Z"/><path class="cls-22" d="M871.63,207.07l11.56,11.49h-48.19l11.49-11.49v-35.06l-11.23-11.23,36.37-11.88v12.15l4.44-4.77c4.57-4.9,10.64-7.38,18.22-7.38l6.79.52v33.3l-19.13-19.13-10.32,10.45v33.04ZM859.1,157.05l-8.55,14.95v35.06l8.55,8.55v-58.57Z"/><path class="cls-22" d="M937.06,186.24v4.18c0,3.59.39,6.66,1.18,9.27s1.89,4.57,3.26,5.94c1.37,1.37,2.87,2.35,4.51,2.94,1.63.59,3.4.91,5.35.91,6.59,0,12.99-3.07,19.2-9.14l6.79,6.86c-8.95,8.81-19.65,13.26-32.13,13.26-5.09,0-9.92-.91-14.5-2.81-4.57-1.89-8.49-4.44-11.75-7.64-3.27-3.2-5.81-6.99-7.7-11.36-1.89-4.37-2.81-9.01-2.81-13.91,0-6.6,1.57-12.6,4.7-18.02,3.13-5.42,7.57-9.73,13.26-12.93,5.68-3.2,12.08-4.77,19.2-4.77,4.9,0,9.6.98,14.1,2.94,4.51,1.96,8.29,4.64,11.36,8.03,3.07,3.4,5.29,7.31,6.66,11.82,1.37,4.51,1.37,9.34,0,14.5l-40.68-.07ZM934.18,155.03c-1.63.46-3.33,1.11-5.09,2.02-1.76.91-3.66,2.22-5.68,3.92-2.02,1.7-3.79,3.59-5.35,5.75-1.57,2.15-2.87,4.83-3.92,7.97-1.04,3.13-1.57,6.46-1.57,10.06s.52,6.79,1.63,9.93c1.11,3.13,2.42,5.75,3.92,7.77,1.5,2.02,3.2,3.85,5.03,5.49,1.83,1.63,3.4,2.81,4.64,3.53,1.24.72,2.29,1.24,3.13,1.57-2.42-1.89-4.37-5.22-5.81-9.99-1.44-4.77-2.15-10.9-2.15-18.48,0-14.82,3.85-24.75,11.49-29.84l-.26.33ZM945.81,159.67c-5.88,0-8.82,5.42-8.82,16.32h15.21c.78-1.24,1.24-2.81,1.44-4.7.2-1.89.07-3.72-.39-5.42-.46-1.7-1.31-3.2-2.61-4.44-1.31-1.24-2.87-1.89-4.77-1.89l-.07.13ZM950.51,156.2c2.09.98,3.85,2.61,5.22,4.9,1.37,2.29,2.09,5.29,2.09,9.01,0,.72-.07,1.44-.2,2.22s-.2,1.37-.26,1.76l-.2.52h10.58c-.2-3.4-1.24-6.53-3.13-9.34s-4.11-4.96-6.6-6.46c-2.48-1.5-4.96-2.35-7.44-2.55l-.07-.07Z"/><path class="cls-22" d="M1016.2,186.24v4.18c0,3.59.39,6.66,1.18,9.27s1.89,4.57,3.26,5.94c1.37,1.37,2.87,2.35,4.51,2.94,1.63.59,3.4.91,5.35.91,6.59,0,12.99-3.07,19.2-9.14l6.79,6.86c-8.95,8.81-19.65,13.26-32.13,13.26-5.09,0-9.92-.91-14.5-2.81-4.57-1.89-8.49-4.44-11.75-7.64-3.27-3.2-5.81-6.99-7.7-11.36-1.89-4.37-2.81-9.01-2.81-13.91,0-6.6,1.57-12.6,4.7-18.02,3.13-5.42,7.57-9.73,13.26-12.93,5.68-3.2,12.08-4.77,19.2-4.77,4.9,0,9.6.98,14.1,2.94,4.51,1.96,8.29,4.64,11.36,8.03,3.07,3.4,5.29,7.31,6.66,11.82,1.37,4.51,1.37,9.34,0,14.5l-40.68-.07ZM1013.32,155.03c-1.63.46-3.33,1.11-5.09,2.02-1.76.91-3.66,2.22-5.68,3.92-2.02,1.7-3.79,3.59-5.35,5.75-1.57,2.15-2.87,4.83-3.92,7.97-1.04,3.13-1.57,6.46-1.57,10.06s.52,6.79,1.63,9.93c1.11,3.13,2.42,5.75,3.92,7.77,1.5,2.02,3.2,3.85,5.03,5.49s3.4,2.81,4.64,3.53c1.24.72,2.29,1.24,3.13,1.57-2.42-1.89-4.37-5.22-5.81-9.99-1.44-4.77-2.15-10.9-2.15-18.48,0-14.82,3.85-24.75,11.49-29.84l-.26.33ZM1024.95,159.67c-5.88,0-8.82,5.42-8.82,16.32h15.21c.78-1.24,1.24-2.81,1.44-4.7.2-1.89.07-3.72-.39-5.42-.46-1.7-1.31-3.2-2.61-4.44-1.31-1.24-2.87-1.89-4.77-1.89l-.07.13ZM1029.65,156.2c2.09.98,3.85,2.61,5.22,4.9,1.37,2.29,2.09,5.29,2.09,9.01,0,.72-.07,1.44-.2,2.22s-.2,1.37-.26,1.76l-.2.52h10.58c-.2-3.4-1.24-6.53-3.13-9.34s-4.11-4.96-6.6-6.46-4.96-2.35-7.44-2.55l-.07-.07Z"/><path class="cls-22" d="M1114.4,139.68l-11.23-11.23,36.44-11.23v90.11l11.49,11.49h-36.7v-6.79c-1.83,2.55-4.31,4.64-7.44,6.2-3.13,1.57-6.73,2.35-10.77,2.35-8.1,0-14.95-3.33-20.5-9.99-5.55-6.66-8.36-15.21-8.36-25.73s2.81-19.07,8.36-25.73c5.55-6.66,12.41-9.99,20.5-9.99,3.85,0,7.44.78,10.71,2.35,3.27,1.57,5.81,3.59,7.57,6.14l-.07-17.96ZM1091.09,215.95c-.07-.07-.39-.46-.98-1.18-.59-.72-1.04-1.31-1.44-1.76-.39-.46-.91-1.24-1.57-2.35s-1.18-2.15-1.63-3.2c-.46-1.04-.98-2.42-1.5-4.05-.52-1.63-.98-3.33-1.31-5.09-.33-1.76-.59-3.79-.85-6.14-.26-2.35-.39-4.83-.39-7.38,0-4.24.26-8.1.72-11.56.46-3.46,1.04-6.2,1.7-8.29.65-2.09,1.44-3.98,2.42-5.68.98-1.7,1.83-2.87,2.48-3.59.65-.72,1.44-1.44,2.29-2.15-1.31.2-2.74.65-4.31,1.44-1.57.78-3.27,1.96-5.16,3.59-1.89,1.63-3.59,3.59-5.09,5.81-1.5,2.22-2.74,5.09-3.79,8.62-1.04,3.53-1.57,7.38-1.57,11.56s.46,7.77,1.44,11.23c.98,3.46,2.15,6.33,3.59,8.62s3.07,4.24,4.9,5.94,3.59,2.94,5.22,3.79,3.2,1.37,4.64,1.63l.2.2ZM1095.4,185c0,8.16.65,14.23,1.96,18.15,1.31,3.92,3.66,5.88,6.99,5.88,1.89,0,3.79-.78,5.62-2.29,1.83-1.5,3.33-3.46,4.44-5.81v-31.86c-1.11-2.35-2.61-4.31-4.51-5.88-1.89-1.57-3.72-2.35-5.55-2.35-3.33,0-5.62,1.96-6.92,5.88-1.31,3.92-1.96,9.99-1.96,18.15l-.07.13ZM1127.07,124.6l-8.55,15.02v75.16h8.55v-90.17Z"/><path class="cls-9" d="M138.63,245.18H58.97v1.29l6.76,10.15s.94,2.27,7.36,2.27h131.07c6.42,0,7.36-2.27,7.36-2.27l6.76-10.15v-1.29h-79.66Z"/><path class="cls-1" d="M37.31,167.65c6.25-7.37,11.26-17.59,8.5-30.22-3.96,7.5-8.52,18.66-8.5,30.22Z"/><path class="cls-13" d="M20.76,181.12c-13.71,8.09-12.61-2.39-12.54-2.97-.05.38-.6,4.62,0-3.58.63-8.57,7.78-.19,7.78-.19-.18-6.01-2.56-8.42-2.56-8.42-5.33-7.56-11.86,6.87-11.86,6.87-4.64,13.57,7.04,18.21,7.04,18.21,15.29,7.56,31.76-8.3,31.76-8.3-2.2-4.92-3.08-10.05-3.09-15.1-7.4,8.73-16.54,13.47-16.54,13.47Z"/><path class="cls-12" d="M8.23,178.15s0-.03,0-.03c0,0,0,.01,0,.03Z"/><path class="cls-15" d="M59.04,50.68c-9.37-16.86-21.4-13.07-21.4-13.07-44.05,20.18-10.37,67.82-10.37,67.82,11.21,8.15,15.74,23.8,15.74,23.8,1.31,2.84,2.22,5.57,2.8,8.21,3.02-5.72,5.68-9.3,5.68-9.3l-9.52-20.07c-7.73-14.6-11-32.82-11-32.82-6.19-24.23,8.76-27.15,8.76-27.15,8.76-3.09,12.03,4.64,12.03,4.64l4.98,8.08c9.11,17.35,21.53,18.69,21.53,18.69,1.82-2.89,2.73-7.8,3.15-12.97-14.84-3.63-22.38-15.85-22.38-15.85Z"/><path class="cls-9" d="M27.27,105.43S-6.42,57.79,37.64,37.61c0,0,12.02-3.79,21.4,13.07,0,0,7.55,12.22,22.38,15.85.78-9.63-.15-20.16-.15-20.16l-11.51.18c-7.78.17-8.55-4.12-8.55-4.12-7.73-20.45-20.09-20.62-20.09-20.62-17.86-1.89-30.76,23.71-30.76,23.71-12.71,26.98-3.61,57.39-3.61,57.39,4.98,14.6,18.56,18.38,18.56,18.38,15.12,8.42,12.32,27.83,12.32,27.83-2.63,10.65-21.61,25.26-21.61,25.26,0,0-7.15-8.38-7.78.19-.6,8.2-.05,3.96,0,3.58,0-.02,0-.03,0-.03,0,0,0,0,0,.03-.07.58-1.17,11.06,12.54,2.97,0,0,9.14-4.74,16.54-13.47-.02-11.55,4.55-22.72,8.5-30.22-.58-2.63-1.49-5.37-2.8-8.21,0,0-4.54-15.65-15.74-23.8Z"/><rect class="cls-11" x="47.5" y="46.85" width="20.75" height="3.84" transform="translate(-16.82 60.98) rotate(-49.4)"/><rect class="cls-11" x="32.29" y="132.75" width="20.75" height="3.84"/><rect class="cls-11" x="32.29" y="136.6" width="20.75" height="3.84"/><path class="cls-13" d="M218.29,223.9c0-1.67-1.33-3.04-2.96-3.04H61.93c-1.63,0-2.96,1.37-2.96,3.04v21.28h159.32v-21.28Z"/><path class="cls-7" d="M232.29,139.6l-30.1-52.78c-8.63-15.51-7.29-37.31-4.62-52.96h-117.89c2.67,15.65,4.01,37.45-4.62,52.96l-30.1,52.78s-14.24,21.73-3.02,47.03l12.81,28.11s7.42,19.09,24.3,20.64c3.7.34,8.12.53,12.76.62v.07h92.27v-.04c5.14-.08,10.06-.27,14.12-.64,16.88-1.55,24.3-20.64,24.3-20.64l12.81-28.11c11.21-25.3-3.02-47.03-3.02-47.03Z"/><path class="cls-17" d="M202.19,14.25h-127.13s2.67,8.16,4.62,19.61h117.89c1.95-11.45,4.62-19.61,4.62-19.61Z"/><ellipse class="cls-16" cx="62.77" cy="127.57" rx="7.29" ry="5.2"/><line class="cls-3" x1="57.65" y1="129.49" x2="60.42" y2="124.82"/><line class="cls-3" x1="61.15" y1="129.49" x2="63.92" y2="124.82"/><line class="cls-3" x1="64.65" y1="129.49" x2="67.42" y2="124.82"/><ellipse class="cls-18" cx="212.96" cy="128.29" rx="7.32" ry="5.22"/><line class="cls-3" x1="207.81" y1="130.23" x2="210.6" y2="125.52"/><line class="cls-3" x1="211.33" y1="130.23" x2="214.12" y2="125.52"/><line class="cls-3" x1="214.85" y1="130.23" x2="217.64" y2="125.52"/><path class="cls-5" d="M91.2,82.73c-16.84,0-30.5,13.65-30.5,30.5,0,2.04.2,4.03.59,5.96,3.14.19,6.84.48,10.88.92-.51-1.9-.79-3.9-.79-5.96,0-12.18,9.51-22.05,21.24-22.05,2.35,0,4.6.4,6.71,1.13.14-.11.29-.21.45-.3,3.07-1.77,7.41.01,9.71,3.98,1.11,1.92,1.53,4,1.33,5.84,1.94,3.32,3.05,7.22,3.05,11.39,0,5.36-1.84,10.27-4.91,14.09,2.38.92,4.67,1.93,6.84,3.04,3.71-5.05,5.91-11.29,5.91-18.04,0-16.84-13.65-30.5-30.5-30.5Z"/><path d="M113.85,114.14c0-4.17-1.11-8.06-3.05-11.39-.22,1.96-1.15,3.64-2.73,4.55-3.07,1.77-7.41-.01-9.71-3.98-2.18-3.77-1.72-8.15.96-10.1-2.11-.73-4.36-1.13-6.71-1.13-11.73,0-21.24,9.87-21.24,22.05,0,2.07.28,4.07.79,5.96,11.19,1.21,24.99,3.56,36.78,8.13,3.06-3.82,4.91-8.73,4.91-14.09Z"/><path class="cls-20" d="M110.8,102.75c.2-1.84-.21-3.92-1.33-5.84-2.29-3.97-6.64-5.76-9.71-3.98-.16.09-.3.19-.45.3,4.83,1.67,8.89,5.08,11.48,9.53Z"/><path class="cls-20" d="M98.37,103.32c2.29,3.97,6.64,5.76,9.71,3.98,1.58-.91,2.51-2.6,2.73-4.55-2.59-4.45-6.65-7.86-11.48-9.53-2.67,1.95-3.13,6.33-.96,10.1Z"/><path class="cls-2" d="M54.95,118.53s45.2.89,70.19,18.06"/><path class="cls-5" d="M188.31,82.78c16.84,0,30.5,13.65,30.5,30.5,0,2.04-.2,4.03-.59,5.96-3.14.19-6.84.48-10.88.92.51-1.9.79-3.9.79-5.96,0-12.18-9.51-22.05-21.24-22.05-2.35,0-4.6.4-6.71,1.13-.14-.11-.29-.21-.45-.3-3.07-1.77-7.41.01-9.71,3.98-1.11,1.92-1.53,4-1.33,5.84-1.94,3.32-3.05,7.22-3.05,11.39,0,5.36,1.84,10.27,4.91,14.09-2.38.92-4.67,1.93-6.84,3.04-3.71-5.05-5.91-11.29-5.91-18.04,0-16.84,13.65-30.5,30.5-30.5Z"/><path d="M165.67,114.2c0-4.17,1.11-8.06,3.05-11.39.22,1.96,1.15,3.64,2.73,4.55,3.07,1.77,7.41-.01,9.71-3.98,2.18-3.77,1.72-8.15-.96-10.1,2.11-.73,4.36-1.13,6.71-1.13,11.73,0,21.24,9.87,21.24,22.05,0,2.07-.28,4.07-.79,5.96-11.19,1.21-24.99,3.56-36.78,8.13-3.06-3.82-4.91-8.73-4.91-14.09Z"/><path class="cls-20" d="M168.72,102.81c-.2-1.84.21-3.92,1.33-5.84,2.29-3.97,6.64-5.76,9.71-3.98.16.09.3.19.45.3-4.83,1.67-8.89,5.08-11.48,9.53Z"/><path class="cls-20" d="M181.15,103.38c-2.29,3.97-6.64,5.76-9.71,3.98-1.58-.91-2.51-2.6-2.73-4.55,2.59-4.45,6.65-7.86,11.48-9.53,2.67,1.95,3.13,6.33.96,10.1Z"/><path class="cls-2" d="M224.57,118.59s-45.2.89-70.19,18.06"/><path d="M83.54,63.69c15.01,2.44,34.37,26.93,39.97,26.74,4.2-.15,8.23-8.4,8.23-8.4,0,0-.71,17.98-6.9,19.9-6.19,1.93-38.72-18.69-47.77-20.13-6.64-1.05-19.19,1.87-19.19,1.87,0,0,6.7-23.06,25.67-19.98Z"/><path d="M204.26,67.46c-15.2-.28-38.63,20.36-44.1,19.17-4.11-.9-6.59-9.74-6.59-9.74,0,0-2.52,17.81,3.23,20.82,5.75,3,41.44-11.47,50.6-11.27,6.72.15,18.55,5.27,18.55,5.27,0,0-2.47-23.89-21.68-24.24Z"/><path class="cls-11" d="M82.65,51.26s-3.28-1.69-4.09.68l-1.06,2.68,32.76,12.91s-2.53-2.5-4.89-3.72l-22.72-12.55Z"/><path class="cls-13" d="M78.65,61.4s-3.56-1-2.53-3.29l1.05-2.68,32.76,12.91s-3.56.1-6.11-.61l-25.17-6.32Z"/><path class="cls-11" d="M196.27,51.26s3.28-1.69,4.09.68l1.06,2.68-32.76,12.91s2.53-2.5,4.89-3.72l22.72-12.55Z"/><path class="cls-13" d="M200.27,61.4s3.56-1,2.53-3.29l-1.05-2.68-32.76,12.91s3.56.1,6.11-.61l25.17-6.32Z"/><rect class="cls-1" x="117.78" y="17.43" width="12.98" height="13.29"/><rect class="cls-1" x="101.92" y="17.43" width="12.98" height="13.29"/><polygon class="cls-1" points="84.65 17.43 87.57 30.71 99.03 30.71 99.03 17.43 84.65 17.43"/><polygon class="cls-11" points="195.7 17.48 192.75 17.48 190.46 27.88 178.36 27.88 178.36 17.48 175.86 17.48 175.47 17.48 162.5 17.48 159.61 17.48 159.61 20.37 159.61 27.88 146.63 27.88 146.63 17.48 146.2 17.48 146.2 17.43 133.65 17.43 131.05 17.43 130.76 17.43 130.76 27.83 117.78 27.83 117.78 20.31 117.78 17.43 114.9 17.43 101.92 17.43 101.53 17.43 99.03 17.43 99.03 27.83 86.94 27.83 84.65 17.43 81.69 17.43 75.97 17.43 76.75 20.31 82.33 20.31 84.62 30.71 85.67 30.71 87.57 30.71 99.03 30.71 101.92 30.71 101.92 27.83 101.92 20.31 114.9 20.31 114.9 30.71 115.73 30.71 117.78 30.71 130.76 30.71 131.98 30.71 133.65 30.71 133.65 20.34 143.75 20.34 143.75 30.77 145.41 30.77 146.63 30.77 159.61 30.77 161.67 30.77 162.5 30.77 162.5 20.37 175.47 20.37 175.47 27.88 175.47 30.77 178.36 30.77 189.82 30.77 191.72 30.77 192.78 30.77 195.07 20.37 200.64 20.37 201.43 17.48 195.7 17.48"/><path class="cls-9" d="M49.71,131.27s-2.16-1.73-3.72,0l-1.25,2.93,7.99,9.3-6.27,16.76s-2.35,9.24,0,10.65l13.97,3.6s1.43.78,2.35-3.76l1.87-26.16,5.41-1.1v-2.19l-7.53,1.72-3.5,23.81s-2.2.78-3.55.63l-5.58-1.25s-1.1-2.98.47-8.15l5.11-16.14-5.77-10.66Z"/><path class="cls-13" d="M44.74,134.2l7.99,9.3s-12.06,25.92-6.27,27.42c1.36.35,13.97,3.6,13.97,3.6,0,0,2.06.32,2.35-3.76l1.87-26.16,5.41-1.1,1.31,3.13s-4.55.31-4.7,2.66l-.63,19.11v6.92s.72,6.87-7,4.83l-14.3-3.76s-6.92-1.25-3.62-13l8.79-19.11-6.27-7.05,1.1-3.04Z"/><path class="cls-9" d="M227.52,131.27s2.16-1.73,3.72,0l1.25,2.93-7.99,9.3,6.27,16.76s2.35,9.24,0,10.65l-13.97,3.6s-1.43.78-2.35-3.76l-1.87-26.16-5.41-1.1v-2.19s7.53,1.72,7.53,1.72l3.5,23.81s2.2.78,3.55.63l5.58-1.25s1.1-2.98-.47-8.15l-5.11-16.14,5.77-10.66Z"/><path class="cls-13" d="M232.5,134.2l-7.99,9.3s12.06,25.92,6.27,27.42c-1.36.35-13.97,3.6-13.97,3.6,0,0-2.06.32-2.35-3.76l-1.87-26.16-5.41-1.1-1.31,3.13s4.55.31,4.7,2.66l.63,19.11v6.92s-.72,6.87,7,4.83l14.3-3.76s6.92-1.25,3.62-13l-8.79-19.11,6.27-7.05-1.1-3.04Z"/><path class="cls-6" d="M207.84,137.94s-1.07,36.88-3.21,47.03c-.72,3.41-4.57,9.48-10.59,16-3.19,3.46-6.98,7.04-11.24,10.42-11.62,9.25-26.71,17.02-42.28,16.65-23.64-.56-42.66-14.72-52.94-27.26-3.66-4.46-6.2-8.71-7.47-12.07-.26-.69-.51-1.42-.76-2.19-4.34-13.33-6.89-36.66-9.93-52.33,0,0,6.97,6.04,18.18,12.67,12.83,7.59,31.2,15.95,51.03,16.89,20.25.97,39-6.8,51.86-14.07,10.72-6.05,17.35-11.74,17.35-11.74Z"/><path class="cls-10" d="M89.85,150.05c.89,4.65,1.61,7.71,2.45,9.69.54,1.26,5.42,5.34,14.22,9.02,7.53,3.15,19.89,6.84,36.08,6.55,26.85-.47,41.44-11.57,43.95-13.66l1.68-8.87c-12.47,6.62-30.38,13.52-49.68,12.6-18.89-.9-36.44-8.47-48.7-15.33Z"/><path class="cls-8" d="M182.79,211.39c-11.62,9.25-26.71,17.02-42.28,16.65-23.64-.56-42.66-14.72-52.94-27.26-3.66-4.46-6.2-8.71-7.47-12.07-.26-.69-.51-1.42-.76-2.19,30.65-4.63,80.84,6.66,103.44,24.87Z"/><path class="cls-14" d="M194.04,200.97c-11.9,12.89-32.24,27.57-53.53,27.07-23.64-.56-42.66-14.72-52.94-27.26,1.67-3.27,4.48-7.6,7.5-7.26,4.81.53,22.45,14.32,43.82,14.32s41.69-19.67,47.56-17.53c3.53,1.28,6.09,6.6,7.58,10.66Z"/><line class="cls-12" x1="79.37" y1="41.36" x2="198.08" y2="41.36"/><path class="cls-19" d="M81.4,48.84c0,.13,0,.06,0,0h0Z"/><path class="cls-19" d="M197.68,33.86s0-.01,0-.02c0,0,0,.02,0,.02Z"/><path class="cls-19" d="M81.4,48.8s0,.03,0,.04c0-.01,0-.03,0-.04Z"/><path class="cls-19" d="M81.4,48.78s0,.02,0,.03c0-.01,0-.03,0-.03Z"/><path class="cls-19" d="M79.8,33.86h0s-.02-.09,0,0Z"/><path class="cls-9" d="M198.6,35.98c.17-1.37-.54-1.96-.92-2.12h-117.89s.01.08,0,0c0,0-1.37.29-1.14,2.12l.47,5.38h118.96l.52-5.38Z"/><path class="cls-15" d="M79.12,41.36l.44,5.04s.12,2.31,1.83,2.38h114.5s0,0,0,0c1.62,0,1.69-2.35,1.69-2.35l.49-5.06h-118.96Z"/><path class="cls-19" d="M197.69,33.84s0,0,0,0h0Z"/><path class="cls-19" d="M79.8,33.86h0c.02.08,0,.04,0,0Z"/><path class="cls-9" d="M195.37.5h-113.48c-7.85,0-10.84,3.44-11.87,6.87h137.22c-1.03-3.44-4.02-6.87-11.87-6.87Z"/><path class="cls-15" d="M70.02,7.38c-1.03,3.44-.1,6.87-.1,6.87h137.41s.93-3.44-.1-6.87H70.02Z"/><path class="cls-9" d="M42.39,190.15h0s8.39,14.3,18.76,17.74c0,0,16.38,4.07,20.58,10.65,0,0,8.28,15.98,36.48,21.31,0,0,10.65-.19,5.33-6.83,0,0-4.7-2.76-7.21,0l-2.48,3.05s-2.53-7.92,3.11-8.02c0,0,8.52-.33,11.59,4.97.38.65,1.37,3.38,1.37,3.38,0,0-2.24,9.95-16.07,6.79,0,0-23.28-4.28-36.35-19.32,0,0-7.08-4.97-13.57-6.87,0,0-14.99-6.29-22.81-15.69l1.27-11.16Z"/><path class="cls-13" d="M41.12,201.31l8.47,13.79s17.55,8.77,21.78,10.34c0,0,16.92,15.77,25.62,17.75,0,0,31.34,13.58,34.74-3.03,0,0,4.2-9.51-6.6-10.31,0,0,8.22,5.14,3.14,9.38,0,0-3.37,6.22-14.42,3.95-2.53-.52-14.86-2.81-20.89-7.51,0,0-9.65-5.77-12.56-8.79,0,0-.7-2.18-6.14-5.09,0,0-27.53-14.23-33.15-20.5Z"/><path class="cls-9" d="M233.92,190.15h0s-8.39,14.3-18.76,17.74c0,0-16.38,4.07-20.58,10.65,0,0-8.28,15.98-36.48,21.31,0,0-10.65-.19-5.33-6.83,0,0,4.7-2.76,7.21,0l2.48,3.05s2.53-7.92-3.11-8.02c0,0-8.52-.33-11.59,4.97-.38.65-1.37,3.38-1.37,3.38,0,0,2.24,9.95,16.07,6.79,0,0,23.28-4.28,36.35-19.32,0,0,7.08-4.97,13.57-6.87,0,0,14.99-6.29,22.81-15.69l-1.27-11.16Z"/><path class="cls-13" d="M235.19,201.31l-8.47,13.79s-17.55,8.77-21.78,10.34c0,0-16.92,15.77-25.62,17.75,0,0-31.34,13.58-34.74-3.03,0,0-4.2-9.51,6.6-10.31,0,0-8.22,5.14-3.14,9.38,0,0,3.37,6.22,14.42,3.95,2.53-.52,14.86-2.81,20.89-7.51,0,0,9.65-5.77,12.56-8.79,0,0,.7-2.18,6.14-5.09,0,0,27.53-14.23,33.15-20.5Z"/><path class="cls-13" d="M34.87,183.91l2.77-2.41s15.34,12.08,29.79,14.97c0,0,5.78,2.58,8.54,8.22,0,0-22.61-1.75-41.1-20.77Z"/><path class="cls-13" d="M242.11,183.91l-2.77-2.41s-15.34,12.08-29.79,14.97c0,0-5.78,2.58-8.54,8.22,0,0,22.61-1.75,41.1-20.77Z"/><path class="cls-11" d="M34.87,177.74l2.77-2.41s15.34,12.08,29.79,14.97c0,0,5.78,2.58,8.54,8.22,0,0-22.61-1.75-41.1-20.77Z"/><path class="cls-11" d="M242.11,177.74l-2.77-2.41s-15.34,12.08-29.79,14.97c0,0-5.78,2.58-8.54,8.22,0,0,22.61-1.75,41.1-20.77Z"/></svg>